<svg
    width="110%"
    height="110%"
    viewBox="0 0 278 112"
    fill="none"
    xmlns="http://www.w3.org/2000/svg"
  >
    <path
      d="M123.301 105.344C153.438 104.668 187.014 102.05 220.009 94.2673C230.253 91.8505 240.381 88.9735 249.812 84.2407C254.063 82.1117 258.228 79.623 261.942 76.6884C264.656 74.545 267.006 71.6679 268.747 68.6758C272.897 61.5119 271.736 54.1034 265.396 48.7521C261.667 45.6161 257.372 42.9691 252.975 40.8113C240.163 34.5393 226.611 30.2813 212.754 26.9295C201.277 24.1531 189.582 23.0598 177.843 22.3262C176.465 22.2399 174.956 22.3262 173.752 21.7795C172.794 21.348 171.503 20.0101 171.619 19.2333C171.764 18.14 172.881 16.8597 173.926 16.2987C174.898 15.7665 176.334 16.011 177.568 15.9966C196.663 15.8096 215.105 19.593 233.053 25.7067C241.803 28.6845 250.392 32.2664 258.75 36.208C263.147 38.2795 267.282 41.2717 270.851 44.5803C278.396 51.5572 279.92 61.0084 275.654 70.3013C273.434 75.1492 270.039 79.0764 265.874 82.3994C258.532 88.2542 250.088 91.9944 241.295 95.0872C224.304 101.057 206.718 104.452 188.929 106.955C167.774 109.933 146.488 111.587 125.115 111.932C99.5194 112.335 74.0692 111.041 49.0397 105.186C39.057 102.855 29.466 99.446 20.6005 94.2529C14.8256 90.8723 9.54402 86.902 5.51029 81.4931C-1.01912 72.7468 -1.67206 63.4539 3.1597 53.7725C5.87304 48.3349 9.87775 43.861 14.3758 39.8044C26.2303 29.1017 40.2033 21.909 54.9888 16.2124C74.2868 8.77518 94.3974 4.66098 114.885 2.20108C141.134 -0.934922 167.411 -0.560903 193.645 2.31617C216.294 4.80483 238.625 8.91904 260.041 16.9317C262.784 17.953 265.439 19.2333 268.094 20.4705C269.952 21.3336 271.156 22.6714 270.358 24.858C269.763 26.4835 267.964 26.9726 265.57 25.9081C252.076 19.8519 237.711 16.7878 223.332 13.7957C206.486 10.2856 189.451 8.44432 172.286 7.36542C141.801 5.46656 111.693 7.84014 81.9915 14.9465C65.9872 18.773 50.6068 24.3114 36.2711 32.4391C28.8566 36.6396 21.8774 41.4731 16.0154 47.7019C13.8099 50.0467 11.7495 52.5929 10.0954 55.3262C4.9299 63.8567 5.68441 72.2433 12.6636 79.3353C16.1895 82.9029 20.3538 86.0245 24.6487 88.6426C34.2397 94.4975 44.977 97.5615 55.9319 99.7913C76.9421 104.064 98.228 105.373 123.301 105.33V105.344Z"
      fill="#a271f2"
    />
  </svg>